<?xml version="1.0" standalone="no"?>
<!DOCTYPE svg PUBLIC "-//W3C//DTD SVG 20010904//EN"
 "http://www.w3.org/TR/2001/REC-SVG-20010904/DTD/svg10.dtd">
<svg version="1.0" xmlns="http://www.w3.org/2000/svg"
 width="336.000000pt" height="336.000000pt" viewBox="0 0 336.000000 336.000000"
 preserveAspectRatio="xMidYMid meet">
<metadata>
Created by potrace 1.11, written by Peter Selinger 2001-2013
</metadata>
<g transform="translate(0.000000,336.000000) scale(0.100000,-0.100000)"
fill="#000000" stroke="none">
<path d="M1280 2979 c-223 -99 -418 -186 -435 -193 -16 -8 -57 -26 -90 -41
-232 -104 -245 -113 -245 -168 0 -29 33 -61 85 -83 22 -9 63 -26 90 -38 28
-13 82 -37 120 -54 39 -17 95 -42 125 -55 149 -66 652 -288 706 -310 47 -20
68 -24 90 -18 16 5 175 74 354 154 179 79 413 184 520 231 259 115 276 124
288 150 13 28 5 70 -17 90 -9 8 -100 52 -201 96 -102 45 -198 87 -215 95 -16
7 -113 50 -215 95 -102 45 -203 90 -225 100 -126 57 -304 130 -316 130 -8 0
-196 -81 -419 -181z m930 -166 c267 -118 488 -217 492 -221 4 -4 -106 -58
-245 -120 -139 -61 -357 -159 -485 -216 -129 -58 -243 -108 -254 -112 -12 -4
-59 12 -131 44 -62 28 -166 74 -232 102 -66 29 -147 65 -180 80 -33 15 -109
49 -170 75 -123 53 -222 97 -278 123 l-38 17 493 219 c271 121 497 223 502
227 11 10 -30 27 526 -218z"/>
<path d="M484 2365 c-16 -7 -34 -23 -40 -36 -15 -35 -12 -1206 4 -1235 6 -12
27 -29 47 -38 163 -75 1043 -446 1071 -452 24 -5 37 0 60 19 l29 25 -1 612 -1
611 -23 24 c-13 14 -33 28 -44 31 -12 4 -41 16 -66 26 -58 26 -84 37 -205 88
-55 23 -113 48 -130 56 -93 42 -624 267 -646 274 -15 5 -37 3 -55 -5z"/>
<path d="M2685 2295 c-104 -46 -206 -90 -225 -99 -19 -8 -109 -47 -200 -86
-91 -39 -178 -78 -195 -85 -16 -7 -79 -35 -140 -60 -60 -26 -121 -58 -134 -71
l-25 -23 3 -607 c1 -443 5 -611 14 -625 18 -28 61 -43 94 -31 27 9 794 340
901 388 29 13 55 24 58 24 23 0 133 65 141 83 7 17 11 1131 4 1215 -2 25 -49
62 -78 61 -15 0 -113 -38 -218 -84z m180 -595 c0 -463 -2 -534 -15 -542 -20
-11 -954 -415 -957 -414 -1 1 -3 242 -5 535 l-2 533 26 14 c15 8 116 53 225
99 109 47 207 90 218 95 180 81 501 217 505 215 3 -2 5 -243 5 -535z"/>
</g>
</svg>
